<svg id="line" xmlns="http://www.w3.org/2000/svg" viewBox="0 0 64 64"><title>1</title><path d="M56.86621,15.81836H7.13379A3.13748,3.13748,0,0,0,4,18.95166V49.04834a3.13748,3.13748,0,0,0,3.13379,3.1333H56.86621A3.13748,3.13748,0,0,0,60,49.04834V18.95166A3.13748,3.13748,0,0,0,56.86621,15.81836ZM6,18.95166c-.19232-.62332,18.40726,13.378,18.41483,13.22257L6,48.92053ZM32,35.21777,8.07593,17.81836H55.92407Zm-5.93359-1.842,5.34472,3.88739a1.00153,1.00153,0,0,0,1.17774,0l5.34472-3.88739L56.41418,50.18164H7.58582ZM39.58527,32.1745c.06.13639,18.55641-13.82392,18.41471-13.22319l0,29.96922Z"/></svg>