<?xml version="1.0" encoding="UTF-8"?><svg width="512" height="512" version="1.1" viewBox="0 0 512 512" xmlns="http://www.w3.org/2000/svg" xmlns:xlink="http://www.w3.org/1999/xlink"><!--Generated by IJSVG (https://github.com/iconjar/IJSVG)--><g transform="scale(8)"><path fill="#000" d="M56,14h-48c-1.104,0 -2,0.896 -2,2v32c0,1.104 0.896,2 2,2h48c1.104,0 2,-0.896 2,-2v-32c0,-1.104 -0.896,-2 -2,-2Zm-5.524,4l-18.476,15.396l-18.476,-15.396h36.952Zm-40.476,28v-25.73l20.72,17.266c0.37,0.31 0.825,0.464 1.28,0.464c0.455,0 0.91,-0.154 1.28,-0.464l20.72,-17.266v25.73h-44Z"></path></g></svg>