<?xml version="1.0" encoding="UTF-8"?><svg width="512" height="512" version="1.1" viewBox="0 0 512 512" xmlns="http://www.w3.org/2000/svg" xmlns:xlink="http://www.w3.org/1999/xlink"><!--Generated by IJSVG (https://github.com/iconjar/IJSVG)--><g transform="scale(21.3333)"><path fill="#000" d="M13.4142,7.77379c0.781049,0.781049 0.781049,2.04738 0,2.82843c-0.781049,0.781049 -2.04738,0.781049 -2.82843,0c-0.781049,-0.781049 -0.781049,-2.04738 0,-2.82843c0.781049,-0.781049 2.04738,-0.781049 2.82843,-8.88178e-16"></path><path fill="#000" d="M12,2.188c-3.86,0 -7,3.141 -7,7c0,3.555 5.576,10.801 6.212,11.615l0.788,1.009l0.788,-1.01c0.636,-0.814 6.212,-8.06 6.212,-11.614c0,-3.86 -3.14,-7 -7,-7Zm0,11c-2.206,0 -4,-1.794 -4,-4c0,-2.206 1.794,-4 4,-4c2.206,0 4,1.794 4,4c0,2.206 -1.794,4 -4,4Z"></path></g></svg>